<?xml version="1.0" standalone="no"?>
<!DOCTYPE svg PUBLIC "-//W3C//DTD SVG 20010904//EN"
 "http://www.w3.org/TR/2001/REC-SVG-20010904/DTD/svg10.dtd">
<svg version="1.0" xmlns="http://www.w3.org/2000/svg"
 width="743.000000pt" height="743.000000pt" viewBox="0 0 743.000000 743.000000"
 preserveAspectRatio="xMidYMid meet">
<metadata>
Created by potrace 1.14, written by Peter Selinger 2001-2017
</metadata>
<g transform="translate(0.000000,743.000000) scale(0.100000,-0.100000)"
fill="#000000" stroke="none">
<path d="M155 7411 c-54 -25 -92 -62 -115 -113 -19 -41 -19 -76 -20 -954 l0
-911 25 -50 c26 -51 72 -91 128 -112 19 -8 323 -11 936 -11 l907 0 51 25 c51
26 91 72 112 128 8 19 11 323 11 935 0 860 -1 909 -19 947 -22 49 -57 87 -102
112 -32 17 -81 18 -954 20 -878 3 -922 2 -960 -16z"/>
<path d="M2764 7411 c-52 -24 -92 -64 -115 -117 -18 -40 -19 -84 -19 -951 1
-861 2 -910 19 -949 25 -56 69 -98 122 -118 40 -15 121 -16 964 -14 l920 3 35
25 c48 34 70 58 91 106 18 40 19 82 16 960 -2 840 -3 922 -19 950 -28 51 -87
101 -134 113 -29 8 -328 11 -941 11 -853 0 -900 -1 -939 -19z"/>
<path d="M5375 7411 c-49 -23 -87 -57 -112 -102 -17 -32 -18 -79 -18 -964 0
-886 1 -932 19 -964 26 -49 59 -79 112 -101 46 -20 67 -20 963 -18 l916 3 42
24 c23 13 57 45 75 70 l33 46 3 920 c2 824 1 924 -13 962 -19 50 -57 93 -105
119 -34 18 -73 19 -955 21 -878 3 -922 2 -960 -16z"/>
<path d="M154 4781 c-47 -21 -86 -58 -111 -104 -17 -30 -18 -97 -21 -947 -3
-1007 -5 -962 58 -1029 68 -71 -7 -66 1015 -68 900 -3 921 -2 964 17 52 24 86
59 112 117 18 40 19 76 19 951 l0 909 -26 50 c-25 51 -71 91 -127 112 -19 8
-323 11 -935 11 -861 0 -909 -1 -948 -19z"/>
<path d="M2765 4781 c-51 -24 -87 -57 -111 -101 -18 -34 -19 -73 -22 -950 -3
-1009 -6 -962 60 -1030 16 -18 49 -41 73 -51 41 -18 79 -19 961 -16 875 2 921
3 954 21 19 10 47 32 63 50 60 69 58 24 55 1026 -3 877 -4 916 -22 950 -24 44
-60 77 -111 101 -38 18 -79 19 -950 19 -871 0 -912 -1 -950 -19z"/>
<path d="M5374 4781 c-52 -24 -92 -64 -115 -116 -18 -40 -19 -90 -19 -949 0
-866 1 -910 19 -950 21 -48 57 -88 104 -113 30 -17 97 -18 951 -21 l920 -2 52
25 c57 28 109 93 119 149 3 17 5 438 3 936 -3 867 -4 906 -22 940 -24 44 -60
77 -111 101 -38 18 -79 19 -950 19 -865 0 -912 -1 -951 -19z"/>
<path d="M167 2156 c-58 -21 -96 -56 -128 -118 -18 -36 -19 -70 -16 -960 2
-858 3 -925 20 -955 25 -47 64 -82 114 -104 43 -18 82 -19 953 -19 l908 0 53
28 c39 20 62 41 84 77 l30 48 3 916 c3 1010 6 963 -59 1031 -17 17 -50 40 -72
51 -40 18 -81 19 -947 18 -731 0 -912 -2 -943 -13z"/>
<path d="M2765 2151 c-54 -25 -92 -62 -115 -113 -19 -41 -20 -75 -20 -950 l0
-907 24 -54 c27 -63 93 -112 160 -122 22 -3 444 -5 936 -3 831 3 897 4 927 21
47 25 83 65 104 113 18 40 19 83 16 960 -2 855 -3 921 -20 951 -25 46 -64 83
-111 104 -39 18 -86 19 -951 19 -863 0 -912 -1 -950 -19z"/>
<path d="M5387 2156 c-63 -23 -108 -68 -132 -131 -14 -35 -15 -155 -13 -955 3
-1007 -1 -940 63 -1005 65 -64 0 -60 985 -63 492 -2 914 0 936 3 64 9 128 57
158 118 l26 51 0 915 0 914 -23 41 c-30 56 -59 84 -111 106 -41 19 -78 20
-947 19 -732 0 -911 -2 -942 -13z"/>
</g>
</svg>
